<svg width="29" height="29" viewBox="0 0 29 29" fill="none" xmlns="http://www.w3.org/2000/svg">
    <path fill-rule="evenodd" clip-rule="evenodd" d="M2.35 5H26.65C27.008 5 27.3514 5.13828 27.6046 5.38442C27.8578 5.63056 28 5.9644 28 6.3125V24.6875C28 25.0356 27.8578 25.3694 27.6046 25.6156C27.3514 25.8617 27.008 26 26.65 26H2.35C1.99196 26 1.64858 25.8617 1.39541 25.6156C1.14223 25.3694 1 25.0356 1 24.6875V6.3125C1 5.9644 1.14223 5.63056 1.39541 5.38442C1.64858 5.13828 1.99196 5 2.35 5ZM23.9919 7.51212L14.7106 14.7309C14.6508 14.7773 14.5765 14.8026 14.5 14.8026C14.4235 14.8026 14.3492 14.7773 14.2894 14.7309L5.00815 7.51212L3.74185 9.05037L13.0245 16.2691C13.4433 16.5948 13.9637 16.7722 14.5 16.7722C15.0363 16.7722 15.5567 16.5948 15.9756 16.2691L25.2582 9.05037L23.9919 7.51212Z" fill="#111111"/>
</svg>
