<svg width="37" height="37" viewBox="0 0 37 37" fill="none" xmlns="http://www.w3.org/2000/svg">
    <g clip-path="url(#clip0_2359_657)">
        <path d="M0 17.76C0 9.38783 0 5.20178 2.60089 2.60089C5.20178 0 9.38783 0 17.76 0H19.24C27.6122 0 31.7982 0 34.3991 2.60089C37 5.20178 37 9.38783 37 17.76V19.24C37 27.6122 37 31.7982 34.3991 34.3991C31.7982 37 27.6122 37 19.24 37H17.76C9.38783 37 5.20178 37 2.60089 34.3991C0 31.7982 0 27.6122 0 19.24V17.76Z" fill="#111111"/>
        <path d="M19.6871 26.6556C11.2542 26.6556 6.44424 20.8744 6.24382 11.2544H10.468C10.6067 18.3152 13.7208 21.3061 16.1875 21.9227V11.2544H20.1651V17.344C22.601 17.0819 25.1598 14.3069 26.0232 11.2544H30.0007C29.3378 15.0161 26.5628 17.7911 24.5895 18.9319C26.5628 19.8569 29.7234 22.2773 30.9259 26.6556H26.5474C25.607 23.7265 23.2639 21.4602 20.1651 21.1519V26.6556H19.6871Z" fill="white"/>
    </g>
    <defs>
        <clipPath id="clip0_2359_657">
            <rect width="37" height="37" fill="white"/>
        </clipPath>
    </defs>
</svg>
