<svg width="25" height="25" viewBox="0 0 25 25" fill="none" xmlns="http://www.w3.org/2000/svg">
    <circle cx="12.5" cy="12.5" r="12.5" fill="#111111"/>
    <path fill-rule="evenodd" clip-rule="evenodd" d="M13.1676 4.15904C15.2034 4.2591 17.1004 5.09862 18.5493 6.54851C20.0949 8.095 20.9456 10.1507 20.9447 12.3368C20.9429 16.8481 17.2703 20.5187 12.7588 20.5187H12.7554C11.3853 20.5182 10.0391 20.1747 8.84345 19.5228L4.50391 20.6606L5.66527 16.4207C4.9489 15.1799 4.57195 13.7724 4.57255 12.3303C4.57436 7.81916 8.24661 4.14893 12.7586 4.14893L13.1676 4.15904ZM9.04449 18.0416L9.29298 18.189C10.3376 18.8086 11.5351 19.1364 12.756 19.1369H12.7587C16.5089 19.1369 19.5611 16.0861 19.5626 12.3363C19.5633 10.5193 18.8562 8.81065 17.5717 7.52525C16.287 6.23977 14.5788 5.53143 12.7614 5.53084C9.00841 5.53084 5.95617 8.5813 5.95467 12.3308C5.95416 13.6158 6.31386 14.8672 6.99494 15.9499L7.15672 16.2073L6.46937 18.7168L9.04449 18.0416ZM16.8828 14.2825C16.8317 14.1971 16.6953 14.146 16.4908 14.0437C16.2862 13.9413 15.2806 13.4468 15.0931 13.3785C14.9056 13.3103 14.7693 13.2762 14.6329 13.4808C14.4966 13.6855 14.1046 14.146 13.9853 14.2825C13.866 14.4189 13.7466 14.436 13.5421 14.3336C13.3376 14.2313 12.6785 14.0154 11.8973 13.3189C11.2892 12.7768 10.8787 12.1073 10.7594 11.9027C10.6401 11.698 10.7467 11.5874 10.849 11.4854C10.9411 11.3938 11.0536 11.2466 11.1559 11.1273C11.2582 11.0079 11.2922 10.9226 11.3604 10.7862C11.4286 10.6497 11.3945 10.5304 11.3434 10.4281C11.2922 10.3257 10.8832 9.31939 10.7128 8.91004C10.5467 8.51143 10.3781 8.56539 10.2525 8.5591C10.1334 8.55319 9.99686 8.55189 9.86053 8.55189C9.72415 8.55189 9.50256 8.60302 9.31507 8.80774C9.12758 9.01237 8.59918 9.50702 8.59918 10.5132C8.59918 11.5196 9.33212 12.4916 9.43439 12.6281C9.53666 12.7646 10.8767 14.8295 12.9285 15.7151C13.4165 15.9257 13.7975 16.0515 14.0946 16.1457C14.5846 16.3013 15.0304 16.2794 15.3829 16.2267C15.7759 16.168 16.5931 15.7322 16.7635 15.2547C16.9339 14.777 16.9339 14.3677 16.8828 14.2825Z" fill="white"/>
</svg>
